# File created by Blade
# Date/Time:  Wed Jan 21 17:41:05 2015
#---------------------------------------------------------
:version 1.10
:name HOM
:units
  mass 1.0
  length 1.000000
  angle deg
:documentation
     Acclaim Skeleton File
:root
   axis xyz
   order TX TY TZ RX RY RZ
   position 0.000000 0.000000 0.000000
   orientation 0 0 0
:bonedata
   begin
      id 1
      name Spine_dum
      direction 0.000000 1.000000 0.000000
      length 7.067664
      axis 0.0 0.0 0.0 xyz
   end
   begin
      id 2
      name LeftUpLeg_dum
      direction 1.000000 0.000000 0.000000
      length 4.013002
      axis 0.0 0.0 0.0 xyz
   end
   begin
      id 3
      name RightUpLeg_dum
      direction -1.000000 0.000000 0.000000
      length 4.013002
      axis 0.0 0.0 0.0 xyz
   end
   begin
      id 4
      name Spine
      direction 0.000000 1.000000 0.000000
      length 0.000000
      axis 0.0 0.0 0.0 xyz
      dof rx ry rz
   end
   begin
      id 5
      name Spine_dum1
      direction 0.000000 1.000000 0.000000
      length 15.039886
      axis 0.0 0.0 0.0 xyz
   end
   begin
      id 6
      name Spine_dum2
      direction 0.000000 1.000000 0.000000
      length 10.530368
      axis 0.0 0.0 0.0 xyz
   end
   begin
      id 7
      name Spine_dum3
      direction 0.000000 1.000000 0.000000
      length 10.530368
      axis 0.0 0.0 0.0 xyz
   end
   begin
      id 8
      name Head
      direction 0.000000 1.000000 0.000000
      length 4.527550
      axis 0.0 0.0 0.0 xyz
      dof rx ry rz
   end
   begin
      id 9
      name LeftShoulder
      direction 1.000000 0.000000 0.000000
      length 7.028855
      axis 0.0 0.0 -90.0 xyz
      dof rx ry rz
   end
   begin
      id 10
      name LeftArm
      direction 1.000000 0.000000 0.000000
      length 10.797705
      axis 0.0 0.0 -90.0 xyz
      dof rx ry rz
   end
   begin
      id 11
      name LeftForeArm
      direction 1.000000 0.000000 0.000000
      length 7.907442
      axis 0.0 0.0 -90.0 xyz
      dof ry rz rx
   end
   begin
      id 12
      name LeftHand
      direction 0.000000 0.000000 0.000000
      length 0.000000
      axis 0.0 0.0 -90.0 xyz
      dof rx ry rz
   end
   begin
      id 13
      name LeftHand_dum1
      direction 0.000000 0.000000 0.000000
      length 0.000000
      axis 0.0 0.0 -90.0 xyz
   end
   begin
      id 14
      name LeftHand_dum2
      direction 1.000000 0.000000 0.000000
      length 3.937000
      axis 0.0 0.0 -90.0 xyz
   end
   begin
      id 15
      name LeftHandThumb1
      direction 0.000000 0.000000 1.000000
      length 3.937000
      axis 0.0 0.0 -90.0 xyz
      dof rx rz ry
   end
   begin
      id 16
      name RightShoulder
      direction -1.000000 0.000000 0.000000
      length 7.028855
      axis 0.0 0.0 90.0 xyz
      dof rx ry rz
   end
   begin
      id 17
      name RightArm
      direction -1.000000 0.000000 0.000000
      length 10.797705
      axis 0.0 0.0 90.0 xyz
      dof rx ry rz
   end
   begin
      id 18
      name RightForeArm
      direction -1.000000 0.000000 0.000000
      length 7.907442
      axis 0.0 0.0 90.0 xyz
      dof ry rz rx
   end
   begin
      id 19
      name RightHand
      direction 0.000000 0.000000 0.000000
      length 0.000000
      axis 0.0 0.0 90.0 xyz
      dof rx ry rz
   end
   begin
      id 20
      name RightHand_dum1
      direction 0.000000 0.000000 0.000000
      length 0.000000
      axis 0.0 0.0 90.0 xyz
   end
   begin
      id 21
      name RightHand_dum2
      direction -1.000000 0.000000 0.000000
      length 3.937000
      axis 0.0 0.0 90.0 xyz
   end
   begin
      id 22
      name RightHandThumb1
      direction 0.000000 0.000000 1.000000
      length 3.937000
      axis 0.0 0.0 90.0 xyz
      dof rx rz ry
   end
   begin
      id 23
      name LeftUpLeg
      direction 0.000000 -1.000000 0.000000
      length 16.899758
      axis 0.0 0.0 0.0 xyz
      dof rx ry rz
   end
   begin
      id 24
      name LeftLeg
      direction 0.000000 -1.000000 0.000000
      length 17.389183
      axis 0.0 0.0 0.0 xyz
      dof rx ry rz
   end
   begin
      id 25
      name LeftFoot
      direction 0.000000 -0.258819 0.965926
      length 4.924528
      axis 15.0 0.0 0.0 xyz
      dof rx ry rz
   end
   begin
      id 26
      name LeftToeBase
      direction 0.000000 0.000000 1.000000
      length 2.952750
      axis 0.0 0.0 0.0 xyz
      dof rx ry rz
   end
   begin
      id 27
      name RightUpLeg
      direction 0.000000 -1.000000 0.000000
      length 16.899758
      axis 0.0 0.0 0.0 xyz
      dof rx ry rz
   end
   begin
      id 28
      name RightLeg
      direction 0.000000 -1.000000 0.000000
      length 17.389183
      axis 0.0 0.0 0.0 xyz
      dof rx ry rz
   end
   begin
      id 29
      name RightFoot
      direction 0.000000 -0.258819 0.965926
      length 4.924528
      axis 15.0 0.0 0.0 xyz
      dof rx ry rz
   end
   begin
      id 30
      name RightToeBase
      direction 0.000000 0.000000 1.000000
      length 2.952750
      axis 0.0 0.0 0.0 xyz
      dof rx ry rz
   end
:hierarchy
   begin
      root Spine_dum LeftUpLeg_dum RightUpLeg_dum
      Spine_dum Spine
      LeftUpLeg_dum LeftUpLeg
      RightUpLeg_dum RightUpLeg
      Spine Spine_dum1 Spine_dum2 Spine_dum3
      Spine_dum1 Head
      Spine_dum2 LeftShoulder
      Spine_dum3 RightShoulder
      LeftShoulder LeftArm
      LeftArm LeftForeArm
      LeftForeArm LeftHand
      LeftHand LeftHand_dum1 LeftHand_dum2
      LeftHand_dum1 LeftHandThumb1
      RightShoulder RightArm
      RightArm RightForeArm
      RightForeArm RightHand
      RightHand RightHand_dum1 RightHand_dum2
      RightHand_dum1 RightHandThumb1
      LeftUpLeg LeftLeg
      LeftLeg LeftFoot
      LeftFoot LeftToeBase
      RightUpLeg RightLeg
      RightLeg RightFoot
      RightFoot RightToeBase
   end

# File created by Blade
# Date/Time:  Wed Jan 21 17:41:14 2015
# Frame Rate: 120.000 fps
#------------------------------------------------------
:FULLY-SPECIFIED
:DEGREES
126
root 16.055246 31.834620 -23.620154 -189.550180 86.761641 -180.279437
Spine -0.883245 -1.210698 -2.428811
Head 8.996992 -2.299242 0.471554
LeftShoulder -4.941237 -48.153983 31.321881
LeftArm 50.488415 -12.890182 -1.977006
LeftForeArm 0.033822 -0.000000 0.332548
LeftHand -8.359934 0.000000 9.174461
LeftHandThumb1 -26.253704 0.000000 33.147579
RightShoulder -5.496705 10.095121 -23.606959
RightArm 45.695995 55.290526 6.603416
RightForeArm -34.761088 -0.000000 14.621013
RightHand -10.975817 -0.000000 -9.565541
RightHandThumb1 -24.326973 -0.000000 -32.862282
LeftUpLeg -11.187925 3.806610 -1.231139
LeftLeg 52.178151 -0.000000 -0.000000
LeftFoot -49.587910 24.256743 -17.804127
LeftToeBase 24.368066 -0.000000 -0.000000
RightUpLeg -11.320355 -3.121671 0.709738
RightLeg 53.065523 -0.000000 -0.000000
RightFoot -51.475954 -25.235442 23.230489
RightToeBase 24.385340 -0.000000 -0.000000
127
root 16.050613 31.717937 -23.605812 -189.058025 86.721834 -179.895481
Spine -1.067389 -1.175782 -2.400635
Head 8.957189 -2.387394 0.492364
LeftShoulder -4.971526 -48.185301 31.298750
LeftArm 51.087078 -13.294225 -2.188670
LeftForeArm 0.092191 0.000000 0.486034
LeftHand -8.287659 -0.000000 9.457774
LeftHandThumb1 -26.253704 0.000000 33.147579
RightShoulder -5.467379 10.318656 -23.612509
RightArm 46.563342 55.708124 7.245122
RightForeArm -35.090547 -0.000000 15.096081
RightHand -11.121808 -0.000000 -9.668631
RightHandThumb1 -24.326973 -0.000000 -32.862282
LeftUpLeg -11.712334 3.745742 -1.208349
LeftLeg 53.023388 -0.000000 -0.000000
LeftFoot -50.050938 24.240467 -17.845162
LeftToeBase 24.434207 -0.000000 -0.000000
RightUpLeg -11.824414 -3.096200 0.784286
RightLeg 53.885742 -0.000000 -0.000000
RightFoot -51.932499 -25.234103 23.353821
RightToeBase 24.364797 -0.000000 -0.000000
128
root 16.047100 31.601058 -23.591112 -188.256671 86.682601 -179.141270
Spine -1.159448 -1.156343 -2.346488
Head 8.910914 -2.432533 0.519378
LeftShoulder -5.002708 -48.304160 31.267988
LeftArm 51.633519 -13.658194 -2.378631
LeftForeArm 0.242812 -0.000000 0.688320
LeftHand -8.254387 0.000000 9.680804
LeftHandThumb1 -26.253704 0.000000 33.147579
RightShoulder -5.470153 10.712193 -23.687094
RightArm 47.497943 55.993752 8.058578
RightForeArm -35.195807 -0.000000 15.652476
RightHand -11.292125 -0.000000 -9.839721
RightHandThumb1 -24.326973 -0.000000 -32.862282
LeftUpLeg -12.176782 3.689682 -1.154724
LeftLeg 53.874602 -0.000000 -0.000000
LeftFoot -50.497774 24.224237 -17.853478
LeftToeBase 24.556090 -0.000000 -0.000000
RightUpLeg -12.255265 -3.030290 0.893502
RightLeg 54.685157 -0.000000 -0.000000
RightFoot -52.398487 -25.296766 23.486265
RightToeBase 24.400701 -0.000000 -0.000000
129
root 16.043173 31.486285 -23.575686 -187.536848 86.630510 -178.505898
Spine -1.294028 -1.148418 -2.292461
Head 8.831869 -2.549231 0.493891
LeftShoulder -5.048087 -48.500524 31.265847
LeftArm 52.150391 -13.863279 -2.512595
LeftForeArm 0.237566 0.000000 0.823756
LeftHand -8.234368 -0.000000 9.959726
LeftHandThumb1 -26.253704 0.000000 33.147579
RightShoulder -5.454213 10.725972 -23.664908
RightArm 48.431116 56.571455 8.719202
RightForeArm -35.429040 -0.000000 16.119326
RightHand -11.426213 -0.000000 -10.156606
RightHandThumb1 -24.326973 -0.000000 -32.862282
LeftUpLeg -12.664870 3.604304 -1.114549
LeftLeg 54.694029 -0.000000 -0.000000
LeftFoot -50.943041 24.198150 -17.907443
LeftToeBase 24.602407 -0.000000 -0.000000
RightUpLeg -12.705101 -2.964429 1.000655
RightLeg 55.450976 -0.000000 -0.000000
RightFoot -52.855993 -25.386025 23.611160
RightToeBase 24.388168 -0.000000 -0.000000
130
root 16.043525 31.373553 -23.559162 -186.536514 86.587036 -177.575361
Spine -1.418895 -1.121330 -2.220411
Head 8.763425 -2.664414 0.479094
LeftShoulder -5.053393 -48.737425 31.222167
LeftArm 52.684058 -14.099440 -2.710490
LeftForeArm 0.265931 -0.000000 0.972312
LeftHand -8.245204 -0.000000 10.285029
LeftHandThumb1 -26.253704 0.000000 33.147579
RightShoulder -5.466361 11.007033 -23.707638
RightArm 49.245596 56.803295 9.307116
RightForeArm -35.563217 -0.000000 16.564772
RightHand -11.559434 -0.000000 -10.408079
RightHandThumb1 -24.326973 -0.000000 -32.862282
LeftUpLeg -13.133353 3.548560 -1.045519
LeftLeg 55.512434 -0.000000 -0.000000
LeftFoot -51.358522 24.133049 -17.962932
LeftToeBase 24.608053 -0.000000 -0.000000
RightUpLeg -13.135364 -2.892645 1.130407
RightLeg 56.214549 -0.000000 -0.000000
RightFoot -53.278822 -25.416139 23.783053
RightToeBase 24.363312 -0.000000 -0.000000
131
root 16.037930 31.262230 -23.541620 -185.473361 86.541193 -176.684921
Spine -1.672254 -1.130484 -2.153312
Head 8.752796 -2.688135 0.507149
LeftShoulder -5.063456 -48.780505 31.193470
LeftArm 53.120298 -14.443676 -2.839293
LeftForeArm 0.266108 -0.000000 1.220142
LeftHand -8.221016 -0.000000 10.553319
LeftHandThumb1 -26.253704 0.000000 33.147579
RightShoulder -5.428631 11.238383 -23.698120
RightArm 50.199372 57.168445 10.050168
RightForeArm -36.034825 -0.000000 17.082557
RightHand -11.709308 -0.000000 -10.527943
RightHandThumb1 -24.326973 -0.000000 -32.862282
LeftUpLeg -13.700302 3.475191 -0.989803
LeftLeg 56.298787 -0.000000 -0.000000
LeftFoot -51.779662 24.101334 -18.032730
LeftToeBase 24.620860 -0.000000 -0.000000
RightUpLeg -13.663970 -2.798169 1.272302
RightLeg 56.943502 -0.000000 -0.000000
RightFoot -53.721244 -25.506278 23.960591
RightToeBase 24.348465 -0.000000 -0.000000
132
root 16.031850 31.151994 -23.524189 -184.080888 86.497120 -175.423059
Spine -1.851329 -1.129721 -2.058870
Head 8.689469 -2.714506 0.552284
LeftShoulder -5.252686 -49.119901 31.348030
LeftArm 53.641653 -14.549773 -3.213765
LeftForeArm 0.365694 -0.000000 1.393494
LeftHand -8.219771 -0.000000 10.999175
LeftHandThumb1 -26.253704 0.000000 33.147579
RightShoulder -5.421435 11.424311 -23.698588
RightArm 51.070800 57.497944 10.681408
RightForeArm -36.110540 0.000000 17.539192
RightHand -11.846032 -0.000000 -10.831824
RightHandThumb1 -24.326973 -0.000000 -32.862282
LeftUpLeg -14.220454 3.400112 -0.907513
LeftLeg 57.085370 -0.000000 -0.000000
LeftFoot -52.201921 24.164116 -18.062871
LeftToeBase 24.745392 -0.000000 -0.000000
RightUpLeg -14.148061 -2.711103 1.435088
RightLeg 57.658611 -0.000000 -0.000000
RightFoot -54.119312 -25.565957 24.125838
RightToeBase 24.346588 -0.000000 -0.000000
